<?xml version="1.0" encoding="utf-8"?>
<!-- Generator: Adobe Illustrator 16.0.0, SVG Export Plug-In . SVG Version: 6.00 Build 0)  -->
<!DOCTYPE svg PUBLIC "-//W3C//DTD SVG 1.1//EN" "http://www.w3.org/Graphics/SVG/1.1/DTD/svg11.dtd">
<svg version="1.1" id="Layer_1" xmlns="http://www.w3.org/2000/svg" xmlns:xlink="http://www.w3.org/1999/xlink" x="0px" y="0px"
	 width="50px" height="50px" viewBox="0 0 50 50" enable-background="new 0 0 50 50" xml:space="preserve">
<title>Asset 1</title>
<g id="Layer_2">
	<g id="Layer_1-2">
		<path fill="#FFFFFF" d="M35.125,35.123L35.125,35.123c1.174-1.175,3.079-1.175,4.254,0l9.746,9.746
			c1.175,1.175,1.175,3.08,0,4.254l0,0c-1.175,1.176-3.08,1.176-4.254,0l-9.746-9.745C33.949,38.203,33.949,36.299,35.125,35.123z"
			/>
		<path fill="#FFFFFF" d="M5.403,5.403C-1.8,12.607-1.799,24.287,5.405,31.49c7.204,7.203,18.884,7.202,26.087-0.002
			c7.202-7.204,7.202-18.882,0-26.085C24.289-1.801,12.609-1.802,5.405,5.401C5.404,5.402,5.404,5.402,5.403,5.403z M27.67,27.67
			c-5.094,5.093-13.353,5.093-18.446-0.001c-5.093-5.094-5.093-13.353,0-18.446s13.352-5.093,18.446,0
			C32.764,14.316,32.764,22.575,27.67,27.67L27.67,27.67z"/>
		<path fill="#FFFFFF" d="M10.678,20.836c0-5.301,4.298-9.598,9.599-9.598c1.629,0,3.231,0.415,4.655,1.205
			c-3.107-3.745-8.661-4.262-12.406-1.156c-3.544,2.94-4.227,8.113-1.566,11.871C10.771,22.398,10.677,21.619,10.678,20.836z"/>
	</g>
</g>
</svg>
