<svg xmlns="http://www.w3.org/2000/svg" viewBox="0 0 186.65 186.65"><defs><style>.cls-1{fill:#fff;}</style></defs><title>Asset 1</title><g id="Layer_2" data-name="Layer 2"><g id="Layer_1-2" data-name="Layer 1"><rect class="cls-1" x="146.02" y="120.29" width="22.46" height="73.91" rx="11.23" ry="11.23" transform="translate(-65.13 157.25) rotate(-45)"/><path class="cls-1" d="M20.17,20.17a68.86,68.86,0,1,0,97.39,0A68.86,68.86,0,0,0,20.17,20.17Zm83.12,83.12a48.69,48.69,0,1,1,0-68.86A48.69,48.69,0,0,1,103.29,103.29Z"/><path class="cls-1" d="M39.86,77.78A35.83,35.83,0,0,1,93.07,46.45a32.89,32.89,0,0,0-52.16,40A35.89,35.89,0,0,1,39.86,77.78Z"/></g></g></svg>